<?xml version="1.0" encoding="UTF-8"?>
<svg id="Layer_1" xmlns="http://www.w3.org/2000/svg" version="1.1" viewBox="0 0 576 576">
  <!-- Generator: Adobe Illustrator 29.8.1, SVG Export Plug-In . SVG Version: 2.1.1 Build 2)  -->
  <defs>
    <style>
      .st0 {
        fill: #b50000;
      }
    </style>
  </defs>
  <path class="st0" d="M454.4,293.9h0c0-.1.1-.2.1-.2l14.1-7.4h0,0c3.1-4.3,6.2-8.5,8.5-13.4,2.2-4.7,3.7-10.1,5.1-15.5,0,0,0,0,0,0,0,0,0,0,0,0h0l-10.8,2.2s-.4.1-2.6.5c-1.1,10.7-14.6,23.4-14.6,23.4,0,0-9,3.3-13.6,6.2h0s0,0,0,0h0s0,0,0,0c-.1,0-.3.2-.4.3.2,2.5-2.3,4.3-4.1,5.2l-1.8.8h0s1.1,18.9,1.1,18.9c0,0,0,0,0,0,0,0,0,0,0,0h0l10.6-5s0,0,0,0c.5-.7,1-1.5,2.3-4.1,1.4-2.7,3.7-7.2,6-11.7h0Z"/>
  <path class="st0" d="M456.4,225.8c1.6-9.1,2.5-17.7-.2-24.4-3.4-8.4-12.6-13.7-21.9-19h-.2c0,0,0-.3,0-.3h0c0-4,0-7.9-3.9-17-3.9-9.1-11.7-23.4-17.4-33-5.7-9.6-9.3-14.5-13-19.5l-1.1-1.5,1.6,1.1c3.1,2.1,6.3,4.3,10.2,5.7h0c2,.7,4.2,1.3,6.7,1.6.2,0,.3,0,.5,0,3.7.3,8,.1,12.1,0h0c3.7-.2,7.2-.3,9.9,0,.4,0,.7,0,1,.1,1.1.2,2,.4,2.9.7,1.5.5,2.6,1.3,3.6,1.9h0s0,0,0,0h0s0,0,0,0c.9.6,1.8,1.1,2.8,1.5.5.2,1.1.3,1.8.4,0,0,0,0,0,0,0,0,0,0,0,0h.8c0,0,0,0,0,0,0,0,0,0,.1,0h0c4.2,0,10.7-2.1,13.2-5.5,1.5-2,1.5-4.4,1.3-6.8-.1-1-.3-2-.5-2.9h0c-.2-.8-.3-1.5-.4-2.1-.1-.9-.1-1.6,0-2.3h0c0-1.7,0-2.8-1.9-5.1-2.7-3.3-9.4-8.8-15.2-12.5-.1,0-.2-.1-.3-.2h0s0,0,0,0c-3-1.9-5.8-3.2-8.5-4.6h0c-2.4-1.2-4.7-2.3-6.9-3.6-4.7-2.9-9-6.9-13.2-10.8,0,0,0,0,0,0l-6.3-2.6h0s0-.1,0-.1l-4.1-5.4s0,0,0,0l-15.7-4.3h0s0,0,0,0h0c-1.5-1.7-3.1-3.3-4.2-5.3-1-1.7-1.6-3.6-2.3-5.5,0,0,0-.1-.2-.1,0,0-.1,0-.1,0-1.3,1.2-2.5,2.5-3,4.5-.3,1.3-.4,2.9-.4,4.4h0c0,1.2,0,2.3-.3,3h0c0,0,0,0,0,0h0s0,0,0,.1c-.3,1-1,1.2-1.7,1.2-.4,0-.8-.2-1.1-.3,0,0,0,0,0,0,0,0,0,0,0,0h0s0,0,0,0l-7.9-5.6s0,0,0,0c0,0,0,0,0,0h0c0,0-.2,0-.2.2-.1,2.2-.2,4.3.2,6.3h0c.4,2.2,1.4,4.2,2.3,6.2v.2c.1,0,0,.2,0,.2l-8.9,6.6-1,.7s0,0,0,0h0s0,0-.1,0c-10.8,8.7-21.4,17.4-28.9,31.5-3.1-2.1-6.4-3.9-10-5.3-6.5-2.7-13.8-4.3-21.6-5-32-3-72.8,8.8-108,21.1-48.8,17-86.4,34.7-123.6,52.4,0,0,0,0,0,0,0,0,0,.1,0,.2,0,0,0,0,0,0,0,0,0,0,0,0h0c20,.4,40,.6,61.5-3.4,22.7-4.2,47-13.2,71.3-22.2h0l.5,1.2h0c-16.8,9.5-33.5,18.9-51.8,27.1-17,7.6-35.2,14-53.6,20.3,0,0,0,0-.1.1,0,0,0,.1,0,.2,0,0,0,0,0,0,0,0,0,0,0,0h0c15.2.2,30.5,0,47.6-4.5,18.8-4.9,39.8-15,60.9-25.2h0s.7,1.1.7,1.1h0c-15.2,11.2-30.3,22.5-43.3,30.6-1.3.8-2.6,1.6-3.8,2.4-11.7,7-21.2,10.9-30.4,14.4,0,0,0,0-.1,0,0,0,0,.1,0,.2,0,0,0,0,0,0,0,0,0,0,0,0h0c12.3-.7,24.6-1.9,37.8-7.2,6.9-2.8,14-6.7,21.3-11.3,8.7-5.5,17.6-11.8,26.5-18.1l3.3-2.3-2.4,3.2c-5,6.8-10.1,13.5-20.4,22.8-9.6,8.7-23.8,19.5-38.2,30.5,0,0,0,0,0,0,0,0,0,.1,0,.2,0,0,0,0,0,0,0,0,0,0,0,0,0,0,0,0,0,0,14.5-3.6,28.7-7.5,39.6-13.7.8-.5,1.6-.9,2.3-1.4,10.6-6.6,18-15.5,25.5-24.6h0s3.6-4.4,3.6-4.4l-2.6,5.1h0c-5.1,9.9-10.2,19.9-17,29.2-6,8.2-13.3,15.8-20.7,23.4,0,0,0,0,0,0,0,0,0,.1,0,.2,0,0,0,0,0,0,0,0,0,0,0,0,0,0,0,0,0,0,7.1-3.3,14-6.6,20.3-10.5,3.3-2.1,6.4-4.3,9.2-6.7,9.3-8,16-18.6,22.7-29.2h0c0,0,1.8-2.9,1.8-2.9l-.7,3.3h0c-2,10.1-4,20.3-6.7,28.8-2.4,7.5-5.3,13.8-8.2,19.9h0c0,0,0,.2,0,.2,0,0,0,0,0,0,0,0,0,0,0,0,0,0,0,0,.1,0,5.8-3.7,11.4-7.7,16.1-13.9,5.3-7.1,9.4-17.2,13.4-27.4l.6-1.5.6,1.6h0c2.6,7.3,5.2,14.7,5.5,22.3.3,6.5-1,13.3-2.6,20h0c0,0,0,.2,0,.2,0,0,0,0,0,0,0,0,0,0,0,0,0,0,.1,0,.2,0,4.3-5.3,8.3-10.5,10.7-15.8,2.8-6.2,3.5-12.4,4.1-18.7l.2-2.2,1,2h0c3,6.2,6,12.4,7.4,19.5,1.2,6.2,1.2,13,1,19.9,0,0,0,.1,0,.2,0,0,0,0,0,0,0,0,0,0,0,0,0,0,.1,0,.2,0,4.2-6.5,8.1-12.9,10.1-19,2.3-6.9,2.3-13.5,2.2-20.2v-2.5s1.2,2.2,1.2,2.2h0c4.2,7.8,8.5,15.7,9.3,23.3.7,7.1-1.6,14-4.1,20.7,0,0,0,.1,0,.2,0,0,0,0,0,0,0,0,0,0,0,0,0,0,0,0,0,0,2.9-1.3,5.8-2.7,8.5-4.4,2.6-1.6,5.1-3.6,7.3-6.1,1.2-1.3,2.3-2.8,3.4-4.2h0c1.1-1.4,2.1-2.8,3.2-4.1,1-1.1,2.1-2.1,3.2-2.8,1.2-.8,2.6-1.2,4-1.1.6,0,1.2.2,1.8.4,0,0,.1,0,.2,0-2.2,5.6-4.5,10.5-7.1,14.2-1.9,2.8-4,5-6.2,6.9-3.4,2.9-7.2,4.9-11.4,7.2,0,0,0,0,0,0-5.4,2.9-11.5,6.2-18.6,12.2-14.2,12-32.3,34.5-40.4,53.9h0c-11.6,2-22,7.7-31.2,17-3.9,4-8.3,10.1-13,18.4-19.2,40.4-26.1,52.5-31.5,60.4,0,0,0,0,0,0-15.7,19-33.1,34.7-52.1,46.9-.8.7-.5,1.5.9,2.4.5,0,1,.1,1.5.2,11.6,1.1,26.1-2.1,43.3-9.5,9.4-4.1,20.7-12.9,33.8-26.4-.7,6.9-7.8,17.4-21.2,31.4,6.4.5,15-3.9,25.7-13.2,8-7.4,13.6-14.8,16.9-22.4,6.4-19.5,11.8-35,16.2-46.6,2.1,7,4.8,13.7,8.3,17.9,18.1,22.5-.4,52-.4,52,0,0,20.6,21,36.9,58,0,0,0,0,0,.1h0l5,4.4h0c0,0,0,.1,0,.1l2.4,7s0,0,0,0c0,0,0,0,.1,0l24.5,2.3h0s0,0,0,0c0,0,0,0,0,0,0,0,.1,0,.1,0,0,0,0-.1,0-.2l-7.3-13.2s0,0,0,0l-5.7-2.5h-.1s0-.2,0-.2h0s0,0,0,0h0s0,0,0,0c-7.1-14.4-14.1-28.9-17.9-38.6-3.8-9.7-4.6-19.7-4.6-19.7h0c0,0,0,0,0,0h0c0-.1,19.6-51.7,19.6-51.7l-6.4-35.2-1.6-2.3,2,1.9,8.8,35.3.2.2v.2c0,0-8.7,21.8-8.7,21.8l-1,2.5-9.9,25.2s0,0,0,0h0s0,0,0,.1l27.2,52h0c0,0,0,.1,0,.1l.9,9.4h0s.4,4.2.4,4.2c0,0,0,.1,0,.1l15,11.4s0,0,0,0l16.3,4s0,0,0,0t0,0s0,0,.1,0c0,0,0,0,0-.1l.4-9.8s0,0,0-.1l-9.5-11.6h0s0,0,0,0h0c-10.9-17.2-21.9-34.3-25.7-45.1-3.6-10.6-.4-15.2,6-23.9h0s.4-.5.4-.5l.4-.5c6.9-9.4,17.3-23.7,27.6-38.1,0,0,0,0,0,0,5.9-8.5,11.8-16.8,11.4-26.6-.4-9.8-6.9-21-13.6-32.4l-.2-.3h0s0,0,0,0l-32.4,23.6,12.4-38.1-32.4-23.6h40.1l12.4-38.1,12.4,38.1h39.5c5.2-4.2,9.8-8.1,13.5-11.6,13.4-12.8,14.7-20.2,15.9-27.7h0s0,0,0,0v-.4c0,0,.4.1.4.1,2.3.7,4.6,1.4,7.3,1.6,2.1.2,4.4.1,7.1-.4,1.6-.3,3.4-.7,5.2-1.3,2.8-.8,5.8-1.8,8.8-2.9h0s0,0,0,0c3-1,6-2,8.8-2.8,7.5-2.2,13.4-2.9,19.3-3.5h0s0,0,0,0h.4c0,0,0,.4,0,.4h0c-.8,5-1.6,10.1-4.1,15.4-2.4,5.3-6.4,11-10.4,16.6h0s0,0,0,0h0s0,.1,0,.1h0s-15,6.6-15,6.6c0,0,0,0,0,0l-5.4,10.7s0,0,0,.1c1.3,4.8,2.6,9.2,6,10.5h0s0,0,0,0c0,0,0,0,0,0,0,0,0,0,0,0h0s0,0,0,0c.5.2,1.1.3,1.7.4,3.6.3,8.5-1.5,11.7-4,0,0,0,0,0,0,3.7-2.9,5-6.5,6.3-10.2h0s0-.1,0-.1h0c0,0,11.6-8,11.6-8,0,0,0,0,0-.1l.4-5.7h0c0,0,0-.1,0-.1,6.2-12.3,12.3-24.5,14.5-32.8h0c9.7-24.7-27.9-29.1-46-29.8Z"/>
</svg>